<?xml version="1.0" encoding="utf-8"?>
<!-- Generator: Adobe Illustrator 25.4.1, SVG Export Plug-In . SVG Version: 6.00 Build 0)  -->
<svg version="1.1" xmlns="http://www.w3.org/2000/svg" xmlns:xlink="http://www.w3.org/1999/xlink" x="0px" y="0px"
	 viewBox="0 0 800 600" style="enable-background:new 0 0 800 600;" xml:space="preserve">
<style type="text/css">
	.st0{display:none;}
	.st1{display:inline;}
	.st2{fill:#036EE1;}
	.st3{fill:#FFFFFF;}
</style>
<g id="Capa_2" class="st0">
	<path class="st1" d="M491-32"/>
</g>
<g id="Capa_1">
	<g>
		<g>
			<path class="st2" d="M686,300.07c-0.53,31.73-4.74,60.86-12.06,87.41c-11.72,42.71-31.47,78.7-56.72,107.96
				c-48.61,56.44-117.63,87.91-188.97,94.4c-41.25,3.78-83.28-0.81-122.6-13.73c-103.72-34.05-188.7-126.07-191.15-276.06
				c1.33-79.82,26.01-143.23,64.44-190.21c27.75-33.94,62.67-59.31,101.14-76.08C326.49,13.47,378.09,5.65,428.5,10.3
				c34.56,3.17,68.57,12.22,99.98,27.12C616.35,79.12,683.82,166.66,686,300.07z"/>
		</g>
		<path class="st3" d="M535.11,26.85C502.53,11.4,467.25,2.01,431.4-1.28c15.04,89.24,41.54,190.1,69.18,260.06
			c-14.16,5.19-28.61,10.96-44.37,19.26c-46.17,24.27-79.96,54.49-102.88,79.76c-14.58-64.54-29.16-129.05-43.73-193.59
			c-10.74-47.05-21.45-94.1-32.16-141.14c-39.91,17.4-76.14,43.71-104.92,78.92c28.15,133.88,58.57,239.48,83.14,316
			c15.24,47.46,33.06,99.18,48.3,167.68c40.79,13.41,84.39,18.17,127.18,14.25c-9.22-46.34-18.42-92.69-27.62-139.01
			c20.51-28.29,87.49-72.02,125.67-78.87c21.82,35.39,58.09,79.12,97.98,119.96c26.19-30.35,46.67-67.69,58.84-111.99
			C604.22,271.55,546.09,129.75,535.11,26.85z"/>
	</g>
</g>
</svg>
